<svg width="26" height="26" viewBox="0 0 26 26" fill="none" xmlns="http://www.w3.org/2000/svg">
<path d="M12.9998 2.16666C15.9433 2.16666 16.3105 2.17749 17.4653 2.23166C18.6191 2.28582 19.4045 2.46674 20.0957 2.73541C20.8107 3.01057 21.413 3.38324 22.0153 3.98449C22.5662 4.52604 22.9925 5.18113 23.2644 5.90416C23.532 6.59424 23.714 7.38074 23.7682 8.53449C23.8191 9.68932 23.8332 10.0566 23.8332 13C23.8332 15.9434 23.8223 16.3107 23.7682 17.4655C23.714 18.6192 23.532 19.4047 23.2644 20.0958C22.9932 20.8192 22.5669 21.4745 22.0153 22.0155C21.4736 22.5662 20.8186 22.9924 20.0957 23.2646C19.4056 23.5322 18.6191 23.7142 17.4653 23.7683C16.3105 23.8192 15.9433 23.8333 12.9998 23.8333C10.0564 23.8333 9.68917 23.8225 8.53434 23.7683C7.38059 23.7142 6.59517 23.5322 5.904 23.2646C5.18069 22.9932 4.52549 22.5668 3.98434 22.0155C3.43336 21.474 3.0071 20.8189 2.73525 20.0958C2.46659 19.4057 2.28567 18.6192 2.2315 17.4655C2.18059 16.3107 2.1665 15.9434 2.1665 13C2.1665 10.0566 2.17734 9.68932 2.2315 8.53449C2.28567 7.37966 2.46659 6.59532 2.73525 5.90416C3.00634 5.18068 3.43271 4.52542 3.98434 3.98449C4.52565 3.43332 5.1808 3.00703 5.904 2.73541C6.59517 2.46674 7.3795 2.28582 8.53434 2.23166C9.68917 2.18074 10.0564 2.16666 12.9998 2.16666ZM12.9998 7.58332C11.5632 7.58332 10.1855 8.15401 9.16968 9.16983C8.15385 10.1857 7.58317 11.5634 7.58317 13C7.58317 14.4366 8.15385 15.8143 9.16968 16.8302C10.1855 17.846 11.5632 18.4167 12.9998 18.4167C14.4364 18.4167 15.8142 17.846 16.83 16.8302C17.8458 15.8143 18.4165 14.4366 18.4165 13C18.4165 11.5634 17.8458 10.1857 16.83 9.16983C15.8142 8.15401 14.4364 7.58332 12.9998 7.58332ZM20.0415 7.31249C20.0415 6.95334 19.8988 6.6089 19.6449 6.35495C19.3909 6.10099 19.0465 5.95832 18.6873 5.95832C18.3282 5.95832 17.9838 6.10099 17.7298 6.35495C17.4758 6.6089 17.3332 6.95334 17.3332 7.31249C17.3332 7.67164 17.4758 8.01608 17.7298 8.27003C17.9838 8.52399 18.3282 8.66666 18.6873 8.66666C19.0465 8.66666 19.3909 8.52399 19.6449 8.27003C19.8988 8.01608 20.0415 7.67164 20.0415 7.31249ZM12.9998 9.74999C13.8618 9.74999 14.6884 10.0924 15.2979 10.7019C15.9074 11.3114 16.2498 12.138 16.2498 13C16.2498 13.8619 15.9074 14.6886 15.2979 15.2981C14.6884 15.9076 13.8618 16.25 12.9998 16.25C12.1379 16.25 11.3112 15.9076 10.7017 15.2981C10.0922 14.6886 9.74984 13.8619 9.74984 13C9.74984 12.138 10.0922 11.3114 10.7017 10.7019C11.3112 10.0924 12.1379 9.74999 12.9998 9.74999Z" fill="#7F9FF4"/>
</svg>
